<svg width="16" height="16" viewBox="0 0 16 16" fill="none" xmlns="http://www.w3.org/2000/svg">
  <g clip-path="url(#clip0_3544_2307)">
    <path d="M14 4.66665C12.8933 4.66665 12 5.55998 12 6.66665C12 6.71331 12 6.75998 12.0067 6.80665L10.6533 7.25998C10.2267 6.45331 9.44 5.86665 8.50667 5.71331V4.27331C9.36 4.04665 10 3.26665 10 2.33331C10 1.22665 9.10667 0.333313 8 0.333313C6.89333 0.333313 6 1.22665 6 2.33331C6 3.26665 6.64 4.04665 7.5 4.27331V5.71331C6.56667 5.86665 5.78 6.45331 5.35333 7.25998L3.99333 6.80665C4 6.75998 4 6.71331 4 6.66665C4 5.55998 3.10667 4.66665 2 4.66665C0.893333 4.66665 0 5.55998 0 6.66665C0 7.77331 0.893333 8.66665 2 8.66665C2.70667 8.66665 3.32 8.29998 3.68 7.75331L5.03333 8.20665C4.9 9.06665 5.14667 9.97998 5.76 10.6666L4.82 11.8466C4.56667 11.7266 4.29333 11.6666 4 11.6666C2.89333 11.6666 2 12.56 2 13.6666C2 14.7733 2.89333 15.6666 4 15.6666C5.10667 15.6666 6 14.7733 6 13.6666C6 13.2133 5.85333 12.8 5.6 12.4666L6.54 11.2866C7.44667 11.7933 8.55333 11.7866 9.45333 11.2866L10.3933 12.4666C10.1467 12.8 10 13.2133 10 13.6666C10 14.7733 10.8933 15.6666 12 15.6666C13.1067 15.6666 14 14.7733 14 13.6666C14 12.56 13.1067 11.6666 12 11.6666C11.7067 11.6666 11.4333 11.7266 11.18 11.84L10.24 10.66C10.86 9.96665 11.1 9.05998 10.9667 8.19998L12.32 7.74665C12.6733 8.29331 13.2933 8.65998 14 8.65998C15.1067 8.65998 16 7.76665 16 6.65998C16 5.55331 15.1067 4.66665 14 4.66665ZM2 7.33331C1.63333 7.33331 1.33333 7.03331 1.33333 6.66665C1.33333 6.29998 1.63333 5.99998 2 5.99998C2.36667 5.99998 2.66667 6.29998 2.66667 6.66665C2.66667 7.03331 2.36667 7.33331 2 7.33331ZM4 14.3333C3.63333 14.3333 3.33333 14.0333 3.33333 13.6666C3.33333 13.3 3.63333 13 4 13C4.36667 13 4.66667 13.3 4.66667 13.6666C4.66667 14.0333 4.36667 14.3333 4 14.3333ZM7.33333 2.33331C7.33333 1.96665 7.63333 1.66665 8 1.66665C8.36667 1.66665 8.66667 1.96665 8.66667 2.33331C8.66667 2.69998 8.36667 2.99998 8 2.99998C7.63333 2.99998 7.33333 2.69998 7.33333 2.33331ZM8 10.3333C7.08 10.3333 6.33333 9.58665 6.33333 8.66665C6.33333 7.74665 7.08 6.99998 8 6.99998C8.92 6.99998 9.66667 7.74665 9.66667 8.66665C9.66667 9.58665 8.92 10.3333 8 10.3333ZM12 13C12.3667 13 12.6667 13.3 12.6667 13.6666C12.6667 14.0333 12.3667 14.3333 12 14.3333C11.6333 14.3333 11.3333 14.0333 11.3333 13.6666C11.3333 13.3 11.6333 13 12 13ZM14 7.33331C13.6333 7.33331 13.3333 7.03331 13.3333 6.66665C13.3333 6.29998 13.6333 5.99998 14 5.99998C14.3667 5.99998 14.6667 6.29998 14.6667 6.66665C14.6667 7.03331 14.3667 7.33331 14 7.33331Z" fill="black"/>
  </g>
  <defs>
    <clipPath id="clip0_3544_2307">
      <rect width="16" height="16" fill="white"/>
    </clipPath>
  </defs>
</svg>
