<svg xmlns="http://www.w3.org/2000/svg" width="152.98" height="152.97" viewBox="0 0 152.98 152.97">
  <path d="m0,0v.88h8.69v8.69h0s-8.69,0-8.69,0v.87h8.69v8.69H0v.87h8.69v8.69H0v.87h8.69v8.69H0v.87h8.69v8.69H0v.87h8.69v8.69H0v.87h8.69v8.69H0v.87h8.69v8.69H0v.87h8.69v8.69H0v.87h8.69v8.69H0v.87h8.69v8.69H0v.87h8.69v8.69H0v.87h8.69v8.69H0v.87h8.69v8.69H0v.87h8.69v8.69H0v.87h8.69v8.69h.87v-8.69h8.69v8.69h.87v-8.68h8.69v8.68h.87v-8.67h8.69v8.67h.87v-8.66h8.69v8.66h.87v-8.65h8.69v8.65h.87v-8.64h8.69v8.64h.87v-8.63h8.69v8.63h.87v-8.62h8.69v8.62h.87v-8.61h8.69v8.61h.87v-8.6h8.69v8.6h.87v-8.59h8.69v8.59h.87v-8.58h8.69v8.58h.87v-8.57h8.69v8.57h.87v-8.56h8.69v8.56h.87v-8.55h8.69v8.55h.89V0H0Zm18.25,143.41h-8.69v-8.69h8.69v8.69Zm0-9.56h-8.69v-8.69h8.69v8.69Zm0-9.56h-8.69v-8.69h8.69v8.69Zm0-9.56h-8.69v-8.69h8.69v8.69Zm0-9.56h-8.69v-8.69h8.69v8.69Zm0-9.56h-8.69v-8.69h8.69v8.69Zm0-9.56h-8.69v-8.69h8.69v8.69Zm0-9.56h-8.69v-8.69h8.69v8.69Zm0-9.56h-8.69v-8.69h8.69v8.69Zm0-9.56h-8.69v-8.69h8.69v8.69Zm0-9.56h-8.69v-8.69h8.69v8.69Zm0-9.56h-8.69v-8.69h8.69v8.69Zm0-9.56h-8.69v-8.69h8.69v8.69Zm0-9.56h-8.69v-8.69h8.69v8.69Zm0-9.56h0s-8.69,0-8.69,0V.88h8.69v8.69Zm9.56,133.85h-8.69v-8.69h8.69v8.69Zm0-9.56h-8.69v-8.69h8.69v8.69Zm0-9.56h-8.69v-8.69h8.69v8.69Zm0-9.56h-8.69v-8.69h8.69v8.69Zm0-9.56h-8.69v-8.69h8.69v8.69Zm0-9.56h-8.69v-8.69h8.69v8.69Zm0-9.56h-8.69v-8.69h8.69v8.69Zm0-9.56h-8.69v-8.69h8.69v8.69Zm0-9.56h-8.69v-8.69h8.69v8.69Zm0-9.56h-8.69v-8.69h8.69v8.69Zm0-9.56h-8.69v-8.69h8.69v8.69Zm0-9.56h-8.69v-8.69h8.69v8.69Zm0-9.56h-8.69v-8.69h8.69v8.69Zm0-9.56h-8.69v-8.69h8.69v8.69Zm0-9.57h0s-8.69.01-8.69.01V.88h8.69v8.69Zm9.56,133.86h-8.69v-8.69h8.69v8.69Zm0-9.56h-8.69v-8.69h8.69v8.69Zm0-9.56h-8.69v-8.69h8.69v8.69Zm0-9.56h-8.69v-8.69h8.69v8.69Zm0-9.56h-8.69v-8.69h8.69v8.69Zm0-9.56h-8.69v-8.69h8.69v8.69Zm0-9.56h-8.69v-8.69h8.69v8.69Zm0-9.56h-8.69v-8.69h8.69v8.69Zm0-9.56h-8.69v-8.69h8.69v8.69Zm0-9.56h-8.69v-8.69h8.69v8.69Zm0-9.56h-8.69v-8.69h8.69v8.69Zm0-9.56h-8.69v-8.69h8.69v8.69Zm0-9.56h-8.69v-8.69h8.69v8.69Zm0-9.56h-8.69v-8.69h8.69v8.69Zm0-9.58v.02h-8.69V.88h8.69v8.69Zm9.56,133.87h-8.69v-8.69h8.69v8.69Zm0-9.56h-8.69v-8.69h8.69v8.69Zm0-9.56h-8.69v-8.69h8.69v8.69Zm0-9.56h-8.69v-8.69h8.69v8.69Zm0-9.56h-8.69v-8.69h8.69v8.69Zm0-9.56h-8.69v-8.69h8.69v8.69Zm0-9.56h-8.69v-8.69h8.69v8.69Zm0-9.56h-8.69v-8.69h8.69v8.69Zm0-9.56h-8.69v-8.69h8.69v8.69Zm0-9.56h-8.69v-8.69h8.69v8.69Zm0-9.56h-8.69v-8.69h8.69v8.69Zm0-9.56h-8.69v-8.69h8.69v8.69Zm0-9.56h-8.69v-8.69h8.69v8.69Zm0-9.56h-8.69v-8.69h8.69v8.69Zm0-9.59v.03h-8.69V.88h8.69v8.69Zm9.56,133.88h-8.69v-8.69h8.69v8.69Zm0-9.56h-8.69v-8.69h8.69v8.69Zm0-9.56h-8.69v-8.69h8.69v8.69Zm0-9.56h-8.69v-8.69h8.69v8.69Zm0-9.56h-8.69v-8.69h8.69v8.69Zm0-9.56h-8.69v-8.69h8.69v8.69Zm0-9.56h-8.69v-8.69h8.69v8.69Zm0-9.56h-8.69v-8.69h8.69v8.69Zm0-9.56h-8.69v-8.69h8.69v8.69Zm0-9.56h-8.69v-8.69h8.69v8.69Zm0-9.56h-8.69v-8.69h8.69v8.69Zm0-9.56h-8.69v-8.69h8.69v8.69Zm0-9.56h-8.69v-8.69h8.69v8.69Zm0-9.56h-8.69v-8.69h8.69v8.69Zm0-9.6v.04h-8.69V.88h8.69v8.69Zm9.56,133.89h-8.69v-8.69h8.69v8.69Zm0-9.56h-8.69v-8.69h8.69v8.69Zm0-9.56h-8.69v-8.69h8.69v8.69Zm0-9.56h-8.69v-8.69h8.69v8.69Zm0-9.56h-8.69v-8.69h8.69v8.69Zm0-9.56h-8.69v-8.69h8.69v8.69Zm0-9.56h-8.69v-8.69h8.69v8.69Zm0-9.56h-8.69v-8.69h8.69v8.69Zm0-9.56h-8.69v-8.69h8.69v8.69Zm0-9.56h-8.69v-8.69h8.69v8.69Zm0-9.56h-8.69v-8.69h8.69v8.69Zm0-9.56h-8.69v-8.69h8.69v8.69Zm0-9.56h-8.69v-8.69h8.69v8.69Zm0-9.56h-8.69v-8.69h8.69v8.69Zm0-9.61v.05h-8.69V.88h8.69v8.69Zm9.56,133.9h-8.69v-8.69h8.69v8.69Zm0-9.56h-8.69v-8.69h8.69v8.69Zm0-9.56h-8.69v-8.69h8.69v8.69Zm0-9.56h-8.69v-8.69h8.69v8.69Zm0-9.56h-8.69v-8.69h8.69v8.69Zm0-9.56h-8.69v-8.69h8.69v8.69Zm0-9.56h-8.69v-8.69h8.69v8.69Zm0-9.56h-8.69v-8.69h8.69v8.69Zm0-9.56h-8.69v-8.69h8.69v8.69Zm0-9.56h-8.69v-8.69h8.69v8.69Zm0-9.56h-8.69v-8.69h8.69v8.69Zm0-9.56h-8.69v-8.69h8.69v8.69Zm0-9.56h-8.69v-8.69h8.69v8.69Zm0-9.56h-8.69v-8.69h8.69v8.69Zm0-9.62v.06h-8.69V.88h8.69v8.69Zm9.56,133.91h-8.69v-8.69h8.69v8.69Zm0-9.56h-8.69v-8.69h8.69v8.69Zm0-9.56h-8.69v-8.69h8.69v8.69Zm0-9.56h-8.69v-8.69h8.69v8.69Zm0-9.56h-8.69v-8.69h8.69v8.69Zm0-9.56h-8.69v-8.69h8.69v8.69Zm0-9.56h-8.69v-8.69h8.69v8.69Zm0-9.56h-8.69v-8.69h8.69v8.69Zm0-9.56h-8.69v-8.69h8.69v8.69Zm0-9.56h-8.69v-8.69h8.69v8.69Zm0-9.56h-8.69v-8.69h8.69v8.69Zm0-9.56h-8.69v-8.69h8.69v8.69Zm0-9.56h-8.69v-8.69h8.69v8.69Zm0-9.56h-8.69v-8.69h8.69v8.69Zm0-9.63v.07h-8.69V.88h8.69v8.69Zm9.56,133.92h-8.69v-8.69h8.69v8.69Zm0-9.56h-8.69v-8.69h8.69v8.69Zm0-9.56h-8.69v-8.69h8.69v8.69Zm0-9.56h-8.69v-8.69h8.69v8.69Zm0-9.56h-8.69v-8.69h8.69v8.69Zm0-9.56h-8.69v-8.69h8.69v8.69Zm0-9.56h-8.69v-8.69h8.69v8.69Zm0-9.56h-8.69v-8.69h8.69v8.69Zm0-9.56h-8.69v-8.69h8.69v8.69Zm0-9.56h-8.69v-8.69h8.69v8.69Zm0-9.56h-8.69v-8.69h8.69v8.69Zm0-9.56h-8.69v-8.69h8.69v8.69Zm0-9.56h-8.69v-8.69h8.69v8.69Zm0-9.56h-8.69v-8.69h8.69v8.69Zm0-9.64v.08h-8.69V.88h8.69v8.69Zm9.56,133.93h-8.69v-8.69h8.69v8.69Zm0-9.56h-8.69v-8.69h8.69v8.69Zm0-9.56h-8.69v-8.69h8.69v8.69Zm0-9.56h-8.69v-8.69h8.69v8.69Zm0-9.56h-8.69v-8.69h8.69v8.69Zm0-9.56h-8.69v-8.69h8.69v8.69Zm0-9.56h-8.69v-8.69h8.69v8.69Zm0-9.56h-8.69v-8.69h8.69v8.69Zm0-9.56h-8.69v-8.69h8.69v8.69Zm0-9.56h-8.69v-8.69h8.69v8.69Zm0-9.56h-8.69v-8.69h8.69v8.69Zm0-9.56h-8.69v-8.69h8.69v8.69Zm0-9.56h-8.69v-8.69h8.69v8.69Zm0-9.56h-8.69v-8.69h8.69v8.69Zm0-9.65v.09h-8.69V.88h8.69v8.69Zm9.56,133.94h-8.69v-8.69h8.69v8.69Zm0-9.56h-8.69v-8.69h8.69v8.69Zm0-9.56h-8.69v-8.69h8.69v8.69Zm0-9.56h-8.69v-8.69h8.69v8.69Zm0-9.56h-8.69v-8.69h8.69v8.69Zm0-9.56h-8.69v-8.69h8.69v8.69Zm0-9.56h-8.69v-8.69h8.69v8.69Zm0-9.56h-8.69v-8.69h8.69v8.69Zm0-9.56h-8.69v-8.69h8.69v8.69Zm0-9.56h-8.69v-8.69h8.69v8.69Zm0-9.56h-8.69v-8.69h8.69v8.69Zm0-9.56h-8.69v-8.69h8.69v8.69Zm0-9.56h-8.69v-8.69h8.69v8.69Zm0-9.56h-8.69v-8.69h8.69v8.69Zm0-9.66v.1h-8.69V.88h8.69v8.69Zm9.56,133.95h-8.69v-8.69h8.69v8.69Zm0-9.56h-8.69v-8.69h8.69v8.69Zm0-9.56h-8.69v-8.69h8.69v8.69Zm0-9.56h-8.69v-8.69h8.69v8.69Zm0-9.56h-8.69v-8.69h8.69v8.69Zm0-9.56h-8.69v-8.69h8.69v8.69Zm0-9.56h-8.69v-8.69h8.69v8.69Zm0-9.56h-8.69v-8.69h8.69v8.69Zm0-9.56h-8.69v-8.69h8.69v8.69Zm0-9.56h-8.69v-8.69h8.69v8.69Zm0-9.56h-8.69v-8.69h8.69v8.69Zm0-9.56h-8.69v-8.69h8.69v8.69Zm0-9.56h-8.69v-8.69h8.69v8.69Zm0-9.56h-8.69v-8.69h8.69v8.69Zm0-9.67v.11h-8.69V.88h8.69v8.69Zm9.56,133.96h-8.69v-8.69h8.69v8.69Zm0-9.56h-8.69v-8.69h8.69v8.69Zm0-9.56h-8.69v-8.69h8.69v8.69Zm0-9.56h-8.69v-8.69h8.69v8.69Zm0-9.56h-8.69v-8.69h8.69v8.69Zm0-9.56h-8.69v-8.69h8.69v8.69Zm0-9.56h-8.69v-8.69h8.69v8.69Zm0-9.56h-8.69v-8.69h8.69v8.69Zm0-9.56h-8.69v-8.69h8.69v8.69Zm0-9.56h-8.69v-8.69h8.69v8.69Zm0-9.56h-8.69v-8.69h8.69v8.69Zm0-9.56h-8.69v-8.69h8.69v8.69Zm0-9.56h-8.69v-8.69h8.69v8.69Zm0-9.56h-8.69v-8.69h8.69v8.69Zm0-9.68v.12h-8.69V.88h8.69v8.69Zm9.56,133.97h-8.69v-8.69h8.69v8.69Zm0-9.56h-8.69v-8.69h8.69v8.69Zm0-9.56h-8.69v-8.69h8.69v8.69Zm0-9.56h-8.69v-8.69h8.69v8.69Zm0-9.56h-8.69v-8.69h8.69v8.69Zm0-9.56h-8.69v-8.69h8.69v8.69Zm0-9.56h-8.69v-8.69h8.69v8.69Zm0-9.56h-8.69v-8.69h8.69v8.69Zm0-9.56h-8.69v-8.69h8.69v8.69Zm0-9.56h-8.69v-8.69h8.69v8.69Zm0-9.56h-8.69v-8.69h8.69v8.69Zm0-9.56h-8.69v-8.69h8.69v8.69Zm0-9.56h-8.69v-8.69h8.69v8.69Zm0-9.56h-8.69v-8.69h8.69v8.69Zm0-9.69v.13h-8.69V.88h8.69v8.69Zm9.56,133.98h-8.69v-8.69h8.69v8.69Zm0-9.56h-8.69v-8.69h8.69v8.69Zm0-9.56h-8.69v-8.69h8.69v8.69Zm0-9.56h-8.69v-8.69h8.69v8.69Zm0-9.56h-8.69v-8.69h8.69v8.69Zm0-9.56h-8.69v-8.69h8.69v8.69Zm0-9.56h-8.69v-8.69h8.69v8.69Zm0-9.56h-8.69v-8.69h8.69v8.69Zm0-9.56h-8.69v-8.69h8.69v8.69Zm0-9.56h-8.69v-8.69h8.69v8.69Zm0-9.56h-8.69v-8.69h8.69v8.69Zm0-9.56h-8.69v-8.69h8.69v8.69Zm0-9.56h-8.69v-8.69h8.69v8.69Zm0-9.56h-8.69v-8.69h8.69v8.69Zm0-9.7v.14h-8.69V.88h8.69v8.69Z" fill="#383838"/>
  <path d="m0,0h3.86v1.26H.37v3.49H0V0Zm151.73,1.27v3.49h1.25V0h-4.74v1.27h3.49Zm1.25,147.78h-1.24v3.49h-3.49v.43h4.73v-3.92ZM.38,152.6v-3.49H0v3.87h3.88v-.37H.38Z" fill="#595959"/>
  <path d="m152.98,149.05h-.89V4.76h.89v144.29ZM3.86,0v.88h144.37V0H3.86Z" fill="#494949"/>
</svg>
